<svg width="337" height="337" viewBox="0 0 337 337" xmlns="http://www.w3.org/2000/svg" xmlns:xlink="http://www.w3.org/1999/xlink"><defs><path id="a" d="M0 0h336.996v337H0z"/></defs><g fill="none" fill-rule="evenodd"><mask id="b" fill="#fff"><use xlink:href="#a"/></mask><path d="M168.468 337c93.074 0 168.528-75.441 168.528-168.5S261.542 0 168.468 0-.06 75.441-.06 168.5 75.394 337 168.468 337" fill="#000" fill-rule="nonzero" mask="url(#b)"/><path d="M174.459 227.701c.239-39.532 32.289-71.52 71.852-71.661-.24 39.533-32.289 71.52-71.852 71.661Zm-83.375-71.63c39.563.142 71.612 32.13 71.852 71.661-39.563-.14-71.613-32.128-71.852-71.66Zm77.426-67.934c-46.081 0-83.439 37.352-83.439 83.425s52.939 122.98 82.939 122.98c29.5 0 83.938-76.907 83.938-122.98 0-46.073-37.357-83.425-83.438-83.425ZM168.676 50.538a8.956 8.956 0 1 1 0-17.91 8.956 8.956 0 1 1 0 17.91Zm28.757-18.496-19.985-2.904-8.938-18.107-8.939 18.108-19.985 2.905 14.462 14.092-3.413 19.902 17.875-9.397 17.876 9.396-3.414-19.9 14.461-14.095Z" fill="#fff" fill-rule="nonzero"/><path d="M44.971 181.298s13-81.903 95.946-130.726C31.971 75.398 6.6 190.547 6.6 190.547l86.292 30.85c-4.09-8.892-7.398-17.835-9.6-26.375l-38.321-13.724M266.538 260.664l-37.524-13.438c-4.05 6.42-8.385 12.57-12.86 18.256l43.031 15.382s9.061 5.008 13.249-5.832c4.25-10.998-5.896-14.368-5.896-14.368M291.268 181.298s-13-81.903-95.946-130.726c108.946 24.826 134.317 139.975 134.317 139.975l-86.292 30.85c4.09-8.892 7.398-17.835 9.599-26.375l38.322-13.724M69.7 260.664l37.525-13.438a215.893 215.893 0 0 0 12.86 18.256l-43.031 15.382s-9.061 5.008-13.249-5.832c-4.25-10.998 5.895-14.368 5.895-14.368" fill="#fff" fill-rule="nonzero"/></g></svg>