<svg enable-background="new 0 0 455.845 185.017" viewBox="0 0 455.845 185.017" xmlns="http://www.w3.org/2000/svg"><path d="m68.133 18.813h292.579v122.435h-292.579z" fill="#ea8c8c"/><path d="m179.716 49.723h71.414v61.821h-71.414z" fill="#c3e2d2"/><path d="m266.985 49.119h71.414v61.821h-71.414z" fill="#c3e2d2"/><path d="m92.242 49.119h71.414v61.821h-71.414z" fill="#c3e2d2"/><path d="m127.651 64.399s-2.047-4.268 2.237-9.948" fill="none" stroke="#59351c" stroke-linecap="round" stroke-miterlimit="10" stroke-width="1.9078"/><path d="m113.37 88.283c-.158.489-.296.986-.409 1.492-1.838 8.239 2.072 15.09 12.004 15.744 15.82 1.041 21.555-7.12 16.783-18.667s-6.979-8.773-7.451-17.635c-.212-3.988-3.081-7.541-7.273-6.822-4.824.828-5.494 5.528-6.16 9.56-1.004 6.074-5.649 10.64-7.494 16.328z" fill="#bbc42a"/><path d="m127.046 63.013c.219-1.067.985-2.036 2.323-2.734 2.79-1.456 5.017-1.122 7.789.056.001 0 3.561 1.513 5.695-1.297-1.326 1.746-2.613 3.463-4.13 5.062-2.464 2.598-7.036 6.157-10.319 2.682-1.143-1.211-1.607-2.553-1.358-3.769z" style="fill:#7aa20d;stroke:#7aa20d;stroke-width:.696;stroke-linecap:round;stroke-linejoin:round;stroke-miterlimit:10"/><circle cx="206.583" cy="71.619" fill="#765373" r="6.657"/><circle cx="217.849" cy="71.619" fill="#765373" r="6.657"/><circle cx="201.975" cy="82.272" fill="#765373" r="6.657"/><circle cx="212.728" cy="81.86" fill="#765373" r="6.657"/><circle cx="224.506" cy="81.092" fill="#765373" r="6.657"/><circle cx="218.873" cy="90.565" fill="#765373" r="6.657"/><circle cx="207.608" cy="92.308" fill="#765373" r="6.657"/><circle cx="214.265" cy="100.551" fill="#765373" r="6.657"/><path d="m211.346 66.824s-3.22-3.932-.192-10.945" fill="none" stroke="#59351c" stroke-linecap="round" stroke-miterlimit="10" stroke-width="2.0483"/><path d="m210.362 65.532c-.043-1.168.511-2.374 1.729-3.442 2.541-2.227 4.949-2.444 8.139-1.92.001 0 4.099.673 5.612-2.799-.94 2.158-1.847 4.277-3.022 6.329-1.911 3.336-5.776 8.21-10.084 5.418-1.5-.972-2.325-2.255-2.374-3.586z" style="fill:#7aa20d;stroke:#7aa20d;stroke-width:.7472;stroke-linecap:round;stroke-linejoin:round;stroke-miterlimit:10"/><path d="m301.436 65.277c-.113-.875.219-1.821 1.061-2.708 1.756-1.851 3.552-2.182 5.987-2.009.001 0 3.129.222 4.025-2.495-.557 1.688-1.091 3.344-1.833 4.97-1.205 2.641-3.773 6.575-7.206 4.775-1.196-.628-1.905-1.535-2.034-2.533z" style="fill:#7aa20d;stroke:#7aa20d;stroke-width:.5643;stroke-linecap:round;stroke-linejoin:round;stroke-miterlimit:10"/><path d="m298.32 70.045s1.818.002 3.974-3.092" style="fill:none;stroke:#7aa20d;stroke-width:1.1601;stroke-linecap:round;stroke-linejoin:round;stroke-miterlimit:10"/><path d="m298.979 72.848s-2.848-3.479-.17-9.683" fill="none" stroke="#59351c" stroke-linecap="round" stroke-miterlimit="10" stroke-width="1.812"/><circle cx="300.856" cy="88.492" fill="#ef9235" r="17.161"/><path d="m0 74.695h1.873v1.073h.096c.191-.533.807-1.183 1.921-1.183s1.784.513 2.023 1.265h.082c.226-.615.978-1.265 2.208-1.265 1.49 0 2.352.964 2.352 2.406v4.977h-1.921v-4.423c0-.923-.492-1.367-1.203-1.367-.759 0-1.23.513-1.23 1.429v4.361h-1.847v-4.361c0-1.032-.533-1.429-1.217-1.429-.663 0-1.217.431-1.217 1.415v4.375h-1.92z" fill="#765373"/><path d="m14.273 82.078c-1.415 0-2.393-.834-2.393-2.201 0-1.312.909-2.167 2.591-2.167h1.75v-.704c0-.663-.417-.971-1.121-.971-.731 0-1.094.369-1.142.916h-1.812c.048-1.224.807-2.365 2.994-2.365 1.729 0 2.98.684 2.98 2.475v4.908h-1.812v-.916h-.082c-.271.526-.879 1.025-1.953 1.025zm1.949-2.523v-.718h-1.292c-.759 0-1.142.369-1.142.902 0 .643.547.957 1.121.957.725.001 1.313-.478 1.313-1.141z" fill="#765373"/><path d="m20.877 71.919c.684 0 1.114.396 1.114.943 0 .554-.424.95-1.114.95-.67 0-1.101-.396-1.101-.95 0-.546.431-.943 1.101-.943zm-.95 2.776h1.921v7.273h-1.921z" fill="#765373"/><path d="m23.728 74.695h1.873v1.08h.082c.232-.554.93-1.189 2.099-1.189 1.442 0 2.488.889 2.488 2.604v4.778h-1.921v-4.218c0-1.128-.567-1.538-1.333-1.538-.813 0-1.367.52-1.367 1.579v4.177h-1.921z" fill="#765373"/><path d="m36.736 82.078c-1.415 0-2.393-.834-2.393-2.201 0-1.312.909-2.167 2.591-2.167h1.75v-.704c0-.663-.417-.971-1.121-.971-.731 0-1.094.369-1.142.916h-1.811c.048-1.224.807-2.365 2.994-2.365 1.729 0 2.98.684 2.98 2.475v4.908h-1.812v-.916h-.082c-.272.526-.88 1.025-1.954 1.025zm1.949-2.523v-.718h-1.292c-.759 0-1.142.369-1.142.902 0 .643.547.957 1.121.957.725.001 1.313-.478 1.313-1.141z" fill="#765373"/><path d="m45.131 79.562h-.075l-1.354 2.406h-2.037l2.235-3.616-2.317-3.657h2.222l1.319 2.393h.082l1.354-2.393h2.112l-2.365 3.596 2.317 3.678h-2.146z" fill="#765373"/><path d="m50.818 71.919c.684 0 1.114.396 1.114.943 0 .554-.424.95-1.114.95-.67 0-1.101-.396-1.101-.95.001-.546.431-.943 1.101-.943zm-.95 2.776h1.921v7.273h-1.921z" fill="#765373"/><path d="m56.335 74.565c1.723 0 2.816.848 2.816 2.229h-1.695c-.048-.438-.342-.93-1.155-.93-.684 0-1.101.328-1.101.834 0 .731 1.114.82 1.894.957 1.34.226 2.283.738 2.283 2.058 0 1.483-1.169 2.386-3.158 2.386-1.894 0-2.994-.896-2.994-2.188h1.866c.062.499.485.875 1.217.875.848 0 1.203-.376 1.203-.854 0-.677-.861-.759-1.798-.937-1.292-.26-2.345-.725-2.345-2.14 0-1.634 1.395-2.29 2.967-2.29z" fill="#765373"/><path d="m395.031 80.431h-326.993" fill="none" stroke="#765373" stroke-miterlimit="10" stroke-width="1.461"/><path d="m405.346 80.431-14.536-5.939 3.449 5.939-3.449 5.939z" fill="#765373"/><circle cx="68.038" cy="80.431" fill="#765373" r="3.571"/><path d="m182.49 6.063c0-1.989 1.196-3.418 3.281-3.418 1.914 0 3.028 1.176 3.042 2.625h-1.764c-.048-.54-.472-1.121-1.224-1.121-.93 0-1.401.827-1.401 1.935v.608c0 1.176.513 1.955 1.401 1.955.834 0 1.169-.485 1.251-1.025h1.764c-.034 1.593-1.299 2.557-3.076 2.557-2.037 0-3.274-1.319-3.274-3.473z" fill="#765373"/><path d="m190.215 2.775h1.928v1.005h.082c.157-.465.588-1.107 1.682-1.107.267 0 .458.021.595.055v1.654c-.144-.048-.444-.075-.738-.075-1.162 0-1.572.677-1.572 1.654v4.088h-1.976v-7.274z" fill="#765373"/><path d="m201.85 6.152v.479c0 2.181-1.148 3.548-3.356 3.548-2.222 0-3.377-1.354-3.377-3.541v-.479c0-2.023 1.155-3.514 3.377-3.514 2.207.001 3.356 1.443 3.356 3.507zm-4.792.028v.458c0 1.025.301 2.064 1.429 2.064s1.415-1.032 1.415-2.064v-.458c0-1.053-.301-2.064-1.415-2.064s-1.429 1.018-1.429 2.064z" fill="#765373"/><path d="m205.944 2.646c1.723 0 2.816.848 2.816 2.229h-1.695c-.048-.438-.342-.93-1.155-.93-.684 0-1.101.328-1.101.834 0 .731 1.114.82 1.894.957 1.34.226 2.283.738 2.283 2.058 0 1.483-1.169 2.386-3.158 2.386-1.894 0-2.994-.896-2.994-2.188h1.866c.062.499.485.875 1.217.875.848 0 1.203-.376 1.203-.854 0-.677-.861-.759-1.798-.937-1.292-.26-2.345-.725-2.345-2.14.001-1.634 1.395-2.29 2.967-2.29z" fill="#765373"/><path d="m213.033 2.646c1.723 0 2.816.848 2.816 2.229h-1.695c-.048-.438-.342-.93-1.155-.93-.684 0-1.101.328-1.101.834 0 .731 1.114.82 1.894.957 1.34.226 2.283.738 2.283 2.058 0 1.483-1.169 2.386-3.158 2.386-1.894 0-2.994-.896-2.994-2.188h1.866c.062.499.485.875 1.217.875.848 0 1.203-.376 1.203-.854 0-.677-.861-.759-1.798-.937-1.292-.26-2.345-.725-2.345-2.14 0-1.634 1.395-2.29 2.967-2.29z" fill="#765373"/><path d="m222.2 10.158c-1.415 0-2.393-.834-2.393-2.201 0-1.312.909-2.167 2.591-2.167h1.75v-.704c0-.663-.417-.971-1.121-.971-.731 0-1.094.369-1.142.916h-1.812c.048-1.224.807-2.365 2.994-2.365 1.729 0 2.98.684 2.98 2.475v4.908h-1.812v-.916h-.082c-.271.526-.88 1.025-1.953 1.025zm1.948-2.522v-.718h-1.292c-.759 0-1.142.369-1.142.902 0 .643.547.957 1.121.957.726 0 1.313-.478 1.313-1.141z" fill="#765373"/><path d="m230.595 7.643h-.075l-1.354 2.406h-2.037l2.235-3.616-2.317-3.657h2.222l1.319 2.393h.082l1.354-2.393h2.112l-2.365 3.596 2.317 3.678h-2.146z" fill="#765373"/><path d="m236.282 0c.684 0 1.114.396 1.114.943 0 .554-.424.95-1.114.95-.67 0-1.101-.396-1.101-.95.001-.547.431-.943 1.101-.943zm-.95 2.775h1.921v7.273h-1.921z" fill="#765373"/><path d="m241.799 2.646c1.723 0 2.816.848 2.816 2.229h-1.695c-.048-.438-.342-.93-1.155-.93-.684 0-1.101.328-1.101.834 0 .731 1.114.82 1.894.957 1.34.226 2.283.738 2.283 2.058 0 1.483-1.169 2.386-3.158 2.386-1.894 0-2.994-.896-2.994-2.188h1.866c.062.499.485.875 1.217.875.848 0 1.203-.376 1.203-.854 0-.677-.861-.759-1.798-.937-1.292-.26-2.345-.725-2.345-2.14 0-1.634 1.395-2.29 2.967-2.29z" fill="#765373"/><path d="m213.705 174.563v-155.927" fill="none" stroke="#765373" stroke-miterlimit="10" stroke-width="1.4806"/><path d="m213.705 185.017 6.02-14.731-6.02 3.496-6.017-3.496z" fill="#765373"/><circle cx="213.705" cy="18.636" fill="#765373" r="3.619"/><path d="m360.712 18.813h18.967" fill="none" stroke="#9cd8b4" stroke-miterlimit="10"/><path d="m360.712 141.247h18.967" fill="none" stroke="#9cd8b4" stroke-miterlimit="10"/><g fill="#43d677"><path d="m381.405 19.06.14-.8c.23-1.327 1.139-2.03 2.396-2.03 1.354 0 2.11.838 2.11 1.762v.054h-.8c0-.016 0-.038 0-.054 0-.462-.451-1.042-1.311-1.042-.795 0-1.413.542-1.59 1.536l-.112.634c-.043.231-.06.397-.06.575 0 .999.478 1.601 1.413 1.601.697 0 1.139-.338 1.24-.736h.87c-.161.902-1.026 1.488-2.148 1.488-1.343 0-2.224-.849-2.224-2.17.001-.227.028-.528.076-.818z"/><path d="m387.916 16.321h.811l-.172.945h.064c.209-.526.784-1.037 1.633-1.037.129 0 .328.016.43.032l-.178.806c-.112-.038-.316-.048-.439-.048-1.021 0-1.553.779-1.719 1.703l-.57 3.233h-.854z"/><path d="m391.293 18.33c.23-1.321 1.188-2.1 2.396-2.1 1.37 0 2.304.865 2.304 2.261 0 .161-.021.43-.064.671l-.139.763c-.242 1.311-1.043 2.122-2.471 2.122-1.252 0-2.219-.806-2.219-2.154 0-.269.016-.548.064-.806zm.698.821c-.032.177-.06.344-.06.602 0 .924.559 1.552 1.494 1.552.838 0 1.385-.575 1.562-1.595l.123-.714c.027-.167.027-.435.027-.505 0-.886-.564-1.52-1.477-1.52-.764 0-1.37.467-1.553 1.52z"/><path d="m399.607 16.219c1.338 0 2.009.833 2.009 1.536v.097h-.8v-.038c0-.387-.403-.913-1.225-.913-.721 0-1.134.381-1.134.838 0 .569.563.752 1.192.961.838.274 1.584.602 1.584 1.622 0 1.106-.811 1.735-2.132 1.735-1.315 0-2.181-.784-2.181-1.633v-.038h.816c0 .027.006.064.011.091.091.424.597.849 1.413.849.805 0 1.234-.381 1.234-.935 0-.607-.553-.784-1.176-.978-.591-.188-1.605-.526-1.605-1.568.002-.982.716-1.626 1.994-1.626z"/><path d="m405.027 16.219c1.338 0 2.009.833 2.009 1.536v.097h-.8v-.038c0-.387-.403-.913-1.225-.913-.721 0-1.134.381-1.134.838 0 .569.563.752 1.192.961.838.274 1.584.602 1.584 1.622 0 1.106-.811 1.735-2.132 1.735-1.315 0-2.181-.784-2.181-1.633v-.038h.816c0 .027.006.064.011.091.091.424.597.849 1.413.849.805 0 1.234-.381 1.234-.935 0-.607-.553-.784-1.176-.978-.591-.188-1.605-.526-1.605-1.568.002-.982.716-1.626 1.994-1.626z"/><path d="m410.49 20.478c0-.075 0-.161.011-.258.103-.913.816-1.558 2.277-1.558h1.536l.064-.354c.011-.059.021-.172.021-.269 0-.505-.295-1.09-1.24-1.09-.721 0-1.112.333-1.241.709h-.833c.162-.843.951-1.429 2.144-1.429 1.327 0 1.981.757 1.981 1.751 0 .306-.053.618-.107.908l-.542 3.067h-.827l.135-.768h-.06c-.204.403-.763.859-1.616.859-.929 0-1.703-.58-1.703-1.568zm1.912.816c.806 0 1.498-.537 1.644-1.278l.134-.682h-1.477c-.939 0-1.354.494-1.354 1.042.001.516.372.918 1.053.918z"/><path d="m418.568 19.764h-.031l-1.746 2.191h-.978l2.331-2.841-1.439-2.793h.924l1.09 2.218h.043l1.757-2.218h.988l-2.368 2.836 1.477 2.798h-.945z"/><path d="m422.936 16.321h.854l-.994 5.634h-.854zm.627-2.369c.37 0 .645.269.645.639 0 .36-.274.628-.645.628-.349 0-.628-.269-.628-.628.001-.37.28-.639.628-.639z"/><path d="m427.35 16.219c1.338 0 2.009.833 2.009 1.536v.097h-.8v-.038c0-.387-.403-.913-1.225-.913-.721 0-1.134.381-1.134.838 0 .569.563.752 1.192.961.838.274 1.584.602 1.584 1.622 0 1.106-.811 1.735-2.132 1.735-1.315 0-2.181-.784-2.181-1.633v-.038h.816c0 .027.006.064.011.091.091.424.597.849 1.413.849.805 0 1.234-.381 1.234-.935 0-.607-.553-.784-1.176-.978-.591-.188-1.605-.526-1.605-1.568.001-.982.715-1.626 1.994-1.626z"/><path d="m435.391 16.219c1.338 0 2.009.833 2.009 1.536v.097h-.8v-.038c0-.387-.403-.913-1.225-.913-.721 0-1.134.381-1.134.838 0 .569.563.752 1.192.961.838.274 1.584.602 1.584 1.622 0 1.106-.811 1.735-2.132 1.735-1.315 0-2.181-.784-2.181-1.633v-.038h.816c0 .027.006.064.011.091.091.424.597.849 1.413.849.805 0 1.234-.381 1.234-.935 0-.607-.553-.784-1.176-.978-.591-.188-1.605-.526-1.605-1.568.001-.982.715-1.626 1.994-1.626z"/><path d="m439.902 14.903h.844l-.258 1.493h1.235l-.124.698h-1.24l-.467 2.68c-.06.344-.124.682-.124.908 0 .338.146.569.677.569.242 0 .537-.027.698-.064l-.134.704c-.107.027-.42.075-.769.075-.983 0-1.354-.424-1.354-1.069 0-.177.026-.44.086-.763l.537-3.04h-.859l.129-.698h.854z"/><path d="m442.32 20.478c0-.075 0-.161.011-.258.103-.913.816-1.558 2.277-1.558h1.536l.064-.354c.011-.059.021-.172.021-.269 0-.505-.295-1.09-1.24-1.09-.721 0-1.112.333-1.241.709h-.833c.162-.843.951-1.429 2.144-1.429 1.327 0 1.981.757 1.981 1.751 0 .306-.053.618-.107.908l-.542 3.067h-.827l.135-.768h-.06c-.204.403-.763.859-1.616.859-.929 0-1.703-.58-1.703-1.568zm1.912.816c.806 0 1.498-.537 1.644-1.278l.134-.682h-1.477c-.939 0-1.354.494-1.354 1.042.001.516.372.918 1.053.918z"/><path d="m449.293 16.321h.811l-.172.945h.064c.209-.526.784-1.037 1.633-1.037.129 0 .328.016.43.032l-.178.806c-.112-.038-.316-.048-.439-.048-1.021 0-1.553.779-1.719 1.703l-.57 3.233h-.854z"/><path d="m454.023 14.903h.844l-.258 1.493h1.235l-.124.698h-1.24l-.467 2.68c-.06.344-.124.682-.124.908 0 .338.146.569.677.569.242 0 .537-.027.698-.064l-.134.704c-.107.027-.42.075-.769.075-.983 0-1.354-.424-1.354-1.069 0-.177.026-.44.086-.763l.537-3.04h-.859l.129-.698h.854z"/></g><path d="m382.922 140.052.14-.8c.231-1.327 1.139-2.03 2.396-2.03 1.354 0 2.111.838 2.111 1.762v.054h-.801c0-.016 0-.038 0-.054 0-.462-.451-1.042-1.311-1.042-.795 0-1.412.542-1.59 1.536l-.113.634c-.043.231-.059.397-.059.575 0 .999.479 1.601 1.412 1.601.699 0 1.139-.338 1.241-.736h.87c-.161.902-1.025 1.488-2.148 1.488-1.343 0-2.224-.849-2.224-2.17.001-.227.027-.528.076-.818z" fill="#e87667"/><path d="m389.432 137.312h.811l-.172.945h.064c.209-.526.784-1.037 1.633-1.037.129 0 .328.016.43.032l-.178.806c-.112-.038-.316-.048-.439-.048-1.021 0-1.553.779-1.719 1.703l-.57 3.233h-.854z" fill="#e87667"/><path d="m392.809 139.321c.23-1.321 1.188-2.1 2.396-2.1 1.37 0 2.304.865 2.304 2.261 0 .161-.021.43-.064.671l-.139.763c-.242 1.311-1.043 2.122-2.471 2.122-1.252 0-2.219-.806-2.219-2.154 0-.269.016-.548.064-.806zm.698.822c-.032.177-.06.344-.06.602 0 .924.559 1.552 1.494 1.552.838 0 1.385-.575 1.562-1.595l.123-.714c.027-.167.027-.435.027-.505 0-.886-.564-1.52-1.477-1.52-.764 0-1.37.467-1.553 1.52z" fill="#e87667"/><path d="m401.123 137.21c1.338 0 2.009.833 2.009 1.536v.097h-.8v-.038c0-.387-.403-.913-1.225-.913-.721 0-1.134.381-1.134.838 0 .569.563.752 1.192.961.838.274 1.584.602 1.584 1.622 0 1.106-.811 1.735-2.132 1.735-1.315 0-2.181-.784-2.181-1.633v-.038h.816c0 .027.006.064.011.091.091.424.597.849 1.413.849.805 0 1.234-.381 1.234-.935 0-.607-.553-.784-1.176-.978-.591-.188-1.605-.526-1.605-1.568.002-.981.716-1.626 1.994-1.626z" fill="#e87667"/><path d="m406.543 137.21c1.338 0 2.009.833 2.009 1.536v.097h-.8v-.038c0-.387-.403-.913-1.225-.913-.721 0-1.134.381-1.134.838 0 .569.563.752 1.192.961.838.274 1.584.602 1.584 1.622 0 1.106-.811 1.735-2.132 1.735-1.315 0-2.181-.784-2.181-1.633v-.038h.816c0 .027.006.064.011.091.091.424.597.849 1.413.849.805 0 1.234-.381 1.234-.935 0-.607-.553-.784-1.176-.978-.591-.188-1.605-.526-1.605-1.568.002-.981.716-1.626 1.994-1.626z" fill="#e87667"/><path d="m412.006 141.47c0-.075 0-.161.011-.258.103-.913.816-1.558 2.277-1.558h1.536l.064-.354c.011-.059.021-.172.021-.269 0-.505-.295-1.09-1.24-1.09-.721 0-1.112.333-1.241.709h-.833c.162-.843.951-1.429 2.144-1.429 1.327 0 1.981.757 1.981 1.751 0 .306-.053.618-.107.908l-.542 3.067h-.827l.135-.768h-.06c-.204.403-.763.859-1.616.859-.93 0-1.703-.58-1.703-1.568zm1.912.816c.806 0 1.498-.537 1.644-1.278l.134-.682h-1.477c-.939 0-1.354.494-1.354 1.042 0 .515.371.918 1.053.918z" fill="#e87667"/><path d="m420.084 140.755h-.031l-1.746 2.191h-.978l2.331-2.841-1.439-2.793h.924l1.09 2.218h.043l1.757-2.218h.988l-2.368 2.836 1.477 2.798h-.945z" fill="#e87667"/><path d="m424.451 137.312h.854l-.994 5.634h-.854zm.628-2.368c.37 0 .645.269.645.639 0 .36-.274.628-.645.628-.349 0-.628-.269-.628-.628 0-.371.279-.639.628-.639z" fill="#e87667"/><path d="m428.865 137.21c1.338 0 2.009.833 2.009 1.536v.097h-.8v-.038c0-.387-.403-.913-1.225-.913-.721 0-1.134.381-1.134.838 0 .569.563.752 1.192.961.838.274 1.584.602 1.584 1.622 0 1.106-.811 1.735-2.132 1.735-1.315 0-2.181-.784-2.181-1.633v-.038h.816c0 .027.006.064.011.091.091.424.597.849 1.413.849.805 0 1.234-.381 1.234-.935 0-.607-.553-.784-1.176-.978-.591-.188-1.605-.526-1.605-1.568.002-.981.716-1.626 1.994-1.626z" fill="#e87667"/><path d="m434.479 140.917c0-.333.054-.671.092-.875l.15-.827c.225-1.251 1.176-1.993 2.454-1.993 1.745 0 2.202 1.386 2.024 2.369l-.134.752h-3.722c-.027.097-.055.295-.055.494 0 .725.36 1.45 1.392 1.45.72 0 1.177-.354 1.294-.725h.854c-.134.704-.95 1.477-2.208 1.477-1.228-.001-2.141-.737-2.141-2.122zm3.91-1.343c.172-.892-.273-1.633-1.246-1.633-.698 0-1.386.397-1.579 1.332l-.081.387h2.891z" fill="#e87667"/><path d="m441.242 137.312h.838l-.172.935h.064c.311-.655.881-1.026 1.686-1.026 1.236 0 1.73.865 1.73 1.767 0 .301-.055.618-.107.918l-.537 3.04h-.854l.548-3.094c.027-.161.075-.446.075-.704 0-.634-.279-1.208-1.112-1.208-.998 0-1.562.822-1.724 1.746l-.575 3.26h-.854z" fill="#e87667"/><path d="m451.027 138.392h.07l.526-3.062h.854l-1.338 7.616h-.832l.166-.951h-.07c-.134.408-.649 1.031-1.611 1.031-1.176 0-2.035-.838-2.035-2.143 0-.199.011-.435.054-.645l.21-1.074c.209-1.08.993-1.944 2.347-1.944.988.001 1.579.694 1.659 1.172zm-1.627-.446c-.896 0-1.418.666-1.59 1.515l-.166.833c-.017.086-.033.285-.033.473 0 .945.559 1.509 1.439 1.509.897 0 1.473-.688 1.645-1.644l.15-.827c.026-.134.026-.215.026-.252.001-1.113-.777-1.607-1.471-1.607z" fill="#e87667"/><path d="m68.133 141.247v18.967" fill="none" stroke="#9cd8b4" stroke-miterlimit="10"/><path d="m360.712 140.68v18.968" fill="none" stroke="#9cd8b4" stroke-miterlimit="10"/><path d="m33.12 165.321h.832l-.166.935h.064c.22-.542.725-1.026 1.568-1.026.838 0 1.38.43 1.573 1.053h.06c.203-.451.692-1.053 1.681-1.053 1.16 0 1.638.806 1.638 1.708 0 .301-.059.65-.107.935l-.542 3.083h-.854l.554-3.142c.026-.161.064-.419.064-.666 0-.677-.247-1.198-.978-1.198-.822 0-1.326.704-1.504 1.697l-.591 3.309h-.854l.559-3.142c.027-.161.06-.424.06-.677 0-.628-.22-1.187-1.015-1.187-.94 0-1.435.773-1.596 1.697l-.586 3.309h-.854z" fill="#43d677"/><path d="m41.585 169.478c0-.075 0-.161.011-.258.103-.913.816-1.558 2.277-1.558h1.536l.064-.354c.011-.059.021-.172.021-.269 0-.505-.295-1.09-1.24-1.09-.721 0-1.112.333-1.241.709h-.833c.162-.843.951-1.429 2.144-1.429 1.327 0 1.981.757 1.981 1.751 0 .306-.053.618-.107.908l-.542 3.067h-.827l.135-.768h-.06c-.204.403-.763.859-1.616.859-.93 0-1.703-.58-1.703-1.568zm1.912.816c.806 0 1.498-.537 1.644-1.278l.134-.682h-1.477c-.939 0-1.354.494-1.354 1.042 0 .516.371.918 1.053.918z" fill="#43d677"/><path d="m48.644 165.321h.854l-.994 5.634h-.854zm.627-2.369c.37 0 .645.269.645.639 0 .36-.274.628-.645.628-.349 0-.628-.269-.628-.628.001-.37.28-.639.628-.639z" fill="#43d677"/><path d="m51.517 165.321h.838l-.172.935h.064c.311-.655.881-1.026 1.686-1.026 1.236 0 1.73.865 1.73 1.767 0 .301-.055.618-.107.918l-.537 3.04h-.854l.548-3.094c.027-.161.075-.446.075-.704 0-.634-.279-1.208-1.112-1.208-.998 0-1.562.822-1.724 1.746l-.575 3.26h-.854z" fill="#43d677"/><path d="m59.396 169.478c0-.075 0-.161.011-.258.103-.913.816-1.558 2.277-1.558h1.536l.064-.354c.011-.059.021-.172.021-.269 0-.505-.295-1.09-1.24-1.09-.721 0-1.112.333-1.241.709h-.833c.162-.843.951-1.429 2.144-1.429 1.327 0 1.981.757 1.981 1.751 0 .306-.053.618-.107.908l-.542 3.067h-.827l.135-.768h-.06c-.204.403-.763.859-1.616.859-.93 0-1.703-.58-1.703-1.568zm1.912.816c.806 0 1.498-.537 1.644-1.278l.134-.682h-1.477c-.939 0-1.354.494-1.354 1.042 0 .516.371.918 1.053.918z" fill="#43d677"/><path d="m67.474 168.764h-.031l-1.746 2.191h-.978l2.331-2.841-1.439-2.793h.924l1.09 2.218h.043l1.757-2.218h.988l-2.368 2.836 1.477 2.798h-.945z" fill="#43d677"/><path d="m71.841 165.321h.854l-.994 5.634h-.854zm.628-2.369c.37 0 .645.269.645.639 0 .36-.274.628-.645.628-.349 0-.628-.269-.628-.628 0-.37.279-.639.628-.639z" fill="#43d677"/><path d="m76.255 165.219c1.338 0 2.009.833 2.009 1.536v.097h-.8v-.038c0-.387-.403-.913-1.225-.913-.721 0-1.134.381-1.134.838 0 .569.563.752 1.192.961.838.274 1.584.602 1.584 1.622 0 1.106-.811 1.735-2.132 1.735-1.315 0-2.181-.784-2.181-1.633v-.038h.816c0 .027.006.064.011.091.091.424.597.849 1.413.849.805 0 1.234-.381 1.234-.935 0-.607-.553-.784-1.176-.978-.591-.188-1.605-.526-1.605-1.568.002-.982.716-1.626 1.994-1.626z" fill="#43d677"/><path d="m84.296 165.219c1.338 0 2.009.833 2.009 1.536v.097h-.8v-.038c0-.387-.403-.913-1.225-.913-.721 0-1.134.381-1.134.838 0 .569.563.752 1.192.961.838.274 1.584.602 1.584 1.622 0 1.106-.811 1.735-2.132 1.735-1.315 0-2.181-.784-2.181-1.633v-.038h.816c0 .027.006.064.011.091.091.424.597.849 1.413.849.805 0 1.234-.381 1.234-.935 0-.607-.553-.784-1.176-.978-.591-.188-1.605-.526-1.605-1.568.002-.982.716-1.626 1.994-1.626z" fill="#43d677"/><path d="m88.808 163.903h.844l-.258 1.493h1.235l-.124.698h-1.24l-.467 2.68c-.06.344-.124.682-.124.908 0 .338.146.569.677.569.242 0 .537-.027.698-.064l-.134.704c-.107.027-.42.075-.769.075-.983 0-1.354-.424-1.354-1.069 0-.177.026-.44.086-.763l.537-3.04h-.859l.129-.698h.854z" fill="#43d677"/><path d="m91.226 169.478c0-.075 0-.161.011-.258.103-.913.816-1.558 2.277-1.558h1.536l.064-.354c.011-.059.021-.172.021-.269 0-.505-.295-1.09-1.24-1.09-.721 0-1.112.333-1.241.709h-.833c.162-.843.951-1.429 2.144-1.429 1.327 0 1.981.757 1.981 1.751 0 .306-.053.618-.107.908l-.542 3.067h-.827l.135-.768h-.06c-.204.403-.763.859-1.616.859-.93 0-1.703-.58-1.703-1.568zm1.912.816c.806 0 1.498-.537 1.644-1.278l.134-.682h-1.477c-.939 0-1.354.494-1.354 1.042 0 .516.371.918 1.053.918z" fill="#43d677"/><path d="m98.198 165.321h.811l-.172.945h.064c.209-.526.784-1.037 1.633-1.037.129 0 .328.016.43.032l-.178.806c-.112-.038-.316-.048-.439-.048-1.021 0-1.553.779-1.719 1.703l-.57 3.233h-.854z" fill="#43d677"/><path d="m102.929 163.903h.844l-.258 1.493h1.235l-.124.698h-1.24l-.467 2.68c-.06.344-.124.682-.124.908 0 .338.146.569.677.569.242 0 .537-.027.698-.064l-.134.704c-.107.027-.42.075-.769.075-.983 0-1.354-.424-1.354-1.069 0-.177.026-.44.086-.763l.537-3.04h-.859l.129-.698h.854z" fill="#43d677"/><path d="m328.183 165.321h.832l-.166.935h.064c.22-.542.725-1.026 1.568-1.026.838 0 1.38.43 1.573 1.053h.06c.203-.451.692-1.053 1.681-1.053 1.16 0 1.638.806 1.638 1.708 0 .301-.059.65-.107.935l-.542 3.083h-.854l.554-3.142c.026-.161.064-.419.064-.666 0-.677-.247-1.198-.978-1.198-.822 0-1.326.704-1.504 1.697l-.591 3.309h-.854l.559-3.142c.027-.161.06-.424.06-.677 0-.628-.22-1.187-1.015-1.187-.94 0-1.435.773-1.596 1.697l-.586 3.309h-.854z" fill="#e87667"/><path d="m336.647 169.478c0-.075 0-.161.011-.258.103-.913.816-1.558 2.277-1.558h1.536l.064-.354c.011-.059.021-.172.021-.269 0-.505-.295-1.09-1.24-1.09-.721 0-1.112.333-1.241.709h-.833c.162-.843.951-1.429 2.144-1.429 1.327 0 1.981.757 1.981 1.751 0 .306-.053.618-.107.908l-.542 3.067h-.827l.135-.768h-.06c-.204.403-.763.859-1.616.859-.929 0-1.703-.58-1.703-1.568zm1.913.816c.806 0 1.498-.537 1.644-1.278l.134-.682h-1.477c-.939 0-1.354.494-1.354 1.042 0 .516.371.918 1.053.918z" fill="#e87667"/><path d="m343.706 165.321h.854l-.994 5.634h-.854zm.628-2.369c.37 0 .645.269.645.639 0 .36-.274.628-.645.628-.349 0-.628-.269-.628-.628 0-.37.279-.639.628-.639z" fill="#e87667"/><path d="m346.579 165.321h.838l-.172.935h.064c.311-.655.881-1.026 1.686-1.026 1.236 0 1.73.865 1.73 1.767 0 .301-.055.618-.107.918l-.537 3.04h-.854l.548-3.094c.027-.161.075-.446.075-.704 0-.634-.279-1.208-1.112-1.208-.998 0-1.562.822-1.724 1.746l-.575 3.26h-.854z" fill="#e87667"/><path d="m354.458 169.478c0-.075 0-.161.011-.258.103-.913.816-1.558 2.277-1.558h1.536l.064-.354c.011-.059.021-.172.021-.269 0-.505-.295-1.09-1.24-1.09-.721 0-1.112.333-1.241.709h-.833c.162-.843.951-1.429 2.144-1.429 1.327 0 1.981.757 1.981 1.751 0 .306-.053.618-.107.908l-.542 3.067h-.827l.135-.768h-.06c-.204.403-.763.859-1.616.859-.93 0-1.703-.58-1.703-1.568zm1.912.816c.806 0 1.498-.537 1.644-1.278l.134-.682h-1.477c-.939 0-1.354.494-1.354 1.042 0 .516.371.918 1.053.918z" fill="#e87667"/><path d="m362.536 168.764h-.031l-1.746 2.191h-.978l2.331-2.841-1.439-2.793h.924l1.09 2.218h.043l1.757-2.218h.988l-2.368 2.836 1.477 2.798h-.945z" fill="#e87667"/><path d="m366.903 165.321h.854l-.994 5.634h-.854zm.628-2.369c.37 0 .645.269.645.639 0 .36-.274.628-.645.628-.349 0-.628-.269-.628-.628 0-.37.28-.639.628-.639z" fill="#e87667"/><path d="m371.317 165.219c1.338 0 2.009.833 2.009 1.536v.097h-.8v-.038c0-.387-.403-.913-1.225-.913-.721 0-1.134.381-1.134.838 0 .569.563.752 1.192.961.838.274 1.584.602 1.584 1.622 0 1.106-.811 1.735-2.132 1.735-1.315 0-2.181-.784-2.181-1.633v-.038h.816c0 .027.006.064.011.091.091.424.597.849 1.413.849.805 0 1.234-.381 1.234-.935 0-.607-.553-.784-1.176-.978-.591-.188-1.605-.526-1.605-1.568.002-.982.716-1.626 1.994-1.626z" fill="#e87667"/><path d="m376.931 168.925c0-.333.054-.671.092-.875l.15-.827c.225-1.251 1.176-1.993 2.454-1.993 1.745 0 2.202 1.386 2.024 2.369l-.134.752h-3.722c-.027.097-.055.295-.055.494 0 .725.36 1.45 1.392 1.45.72 0 1.177-.354 1.294-.725h.854c-.134.704-.95 1.477-2.208 1.477-1.228-.001-2.141-.736-2.141-2.122zm3.91-1.343c.172-.892-.273-1.633-1.246-1.633-.698 0-1.386.397-1.579 1.332l-.081.387h2.891z" fill="#e87667"/><path d="m383.692 165.321h.838l-.172.935h.064c.312-.655.881-1.026 1.688-1.026 1.234 0 1.729.865 1.729 1.767 0 .301-.053.618-.107.918l-.537 3.04h-.854l.548-3.094c.026-.161.075-.446.075-.704 0-.634-.279-1.208-1.111-1.208-1 0-1.563.822-1.725 1.746l-.574 3.26h-.854z" fill="#e87667"/><path d="m393.479 166.4h.069l.526-3.062h.854l-1.337 7.616h-.833l.167-.951h-.069c-.135.408-.65 1.031-1.611 1.031-1.177 0-2.036-.838-2.036-2.143 0-.199.011-.435.054-.645l.209-1.074c.21-1.08.994-1.944 2.348-1.944.988.001 1.578.694 1.659 1.172zm-1.627-.445c-.897 0-1.418.666-1.59 1.515l-.167.833c-.016.086-.031.285-.031.473 0 .945.559 1.509 1.439 1.509.896 0 1.471-.688 1.643-1.644l.15-.827c.027-.134.027-.215.027-.252 0-1.113-.779-1.607-1.471-1.607z" fill="#e87667"/></svg>