<svg enable-background="new 0 0 401.374 160.255" viewBox="0 0 401.374 160.255" xmlns="http://www.w3.org/2000/svg"><g fill="#ea8c8c"><path d="m27.93 47.917h-1.543v-2.1h1.543v-1.035c0-2.109 1.104-2.939 3.564-2.939.645 0 .996.049 1.182.068v1.924c-.137-.02-.264-.029-.635-.029-.957 0-1.436.303-1.436 1.211v.801h1.982v2.1h-1.924v8.164h-2.733z"/><path d="m34.6 42.048h2.754v14.033h-2.754z"/><path d="m39.424 51.305v-.811c0-3.145 1.865-4.99 4.668-4.99 2.939 0 4.639 1.973 4.639 4.98v.977h-6.611v.352c0 1.318.752 2.363 2.1 2.363 1.133 0 1.758-.586 1.855-1.289h2.568c-.127 1.445-1.318 3.379-4.414 3.379-3.008 0-4.805-1.816-4.805-4.961zm6.66-1.523v-.02c0-1.299-.742-2.227-1.973-2.227-1.221 0-1.992.938-1.992 2.227v.02z"/><path d="m54.59 52.643h-.107l-1.934 3.438h-2.91l3.193-5.166-3.311-5.225h3.174l1.885 3.418h.117l1.934-3.418h3.018l-3.379 5.137 3.311 5.254h-3.066z"/><path d="m0 74.387c0-2.842 1.709-4.883 4.688-4.883 2.734 0 4.326 1.68 4.346 3.75h-2.52c-.068-.771-.674-1.602-1.748-1.602-1.328 0-2.002 1.182-2.002 2.764v.869c0 1.68.732 2.793 2.002 2.793 1.191 0 1.67-.693 1.787-1.465h2.52c-.049 2.275-1.855 3.652-4.395 3.652-2.91.001-4.678-1.883-4.678-4.96z"/><path d="m20.098 74.514v.684c0 3.115-1.641 5.068-4.795 5.068-3.174 0-4.824-1.934-4.824-5.059v-.684c0-2.891 1.65-5.02 4.824-5.02 3.154.002 4.795 2.062 4.795 5.011zm-6.846.039v.654c0 1.465.43 2.949 2.041 2.949s2.021-1.475 2.021-2.949v-.654c0-1.504-.43-2.949-2.021-2.949s-2.041 1.455-2.041 2.949z"/><path d="m22.09 69.69h2.676v1.543h.117c.332-.791 1.328-1.699 2.998-1.699 2.061 0 3.555 1.27 3.555 3.721v6.826h-2.744v-6.025c0-1.611-.811-2.197-1.904-2.197-1.162 0-1.953.742-1.953 2.256v5.967h-2.745z"/><path d="m34.512 67.239h2.666v2.578h2.002v2.1h-2.002v4.814c0 .996.439 1.309 1.475 1.309.225 0 .449 0 .566-.02v2.021c-.215.039-.684.088-1.24.088-2.607 0-3.525-.859-3.525-2.998v-5.215h-1.484v-2.1h1.543v-2.577z"/><path d="m44.043 80.237c-2.021 0-3.418-1.191-3.418-3.145 0-1.875 1.299-3.096 3.701-3.096h2.5v-1.006c0-.947-.596-1.387-1.602-1.387-1.045 0-1.562.527-1.631 1.309h-2.588c.068-1.748 1.152-3.379 4.277-3.379 2.471 0 4.258.977 4.258 3.535v7.012h-2.588v-1.309h-.117c-.39.753-1.259 1.466-2.792 1.466zm2.783-3.603v-1.025h-1.846c-1.084 0-1.631.527-1.631 1.289 0 .918.781 1.367 1.602 1.367 1.035-.001 1.875-.684 1.875-1.631z"/><path d="m53.477 65.725c.977 0 1.592.566 1.592 1.348 0 .791-.605 1.357-1.592 1.357-.957 0-1.572-.566-1.572-1.357-.001-.781.615-1.348 1.572-1.348zm-1.358 3.965h2.744v10.391h-2.744z"/><path d="m57.549 69.69h2.676v1.543h.117c.332-.791 1.328-1.699 2.998-1.699 2.061 0 3.555 1.27 3.555 3.721v6.826h-2.745v-6.025c0-1.611-.811-2.197-1.904-2.197-1.162 0-1.953.742-1.953 2.256v5.967h-2.744z"/><path d="m68.838 75.305v-.811c0-3.145 1.865-4.99 4.668-4.99 2.939 0 4.639 1.973 4.639 4.98v.977h-6.611v.352c0 1.318.752 2.363 2.1 2.363 1.133 0 1.758-.586 1.855-1.289h2.568c-.127 1.445-1.318 3.379-4.414 3.379-3.008 0-4.805-1.816-4.805-4.961zm6.66-1.523v-.02c0-1.299-.742-2.227-1.973-2.227-1.221 0-1.992.938-1.992 2.227v.02z"/><path d="m80.195 69.69h2.754v1.436h.117c.225-.664.84-1.582 2.402-1.582.381 0 .654.029.85.078v2.363c-.205-.068-.635-.107-1.055-.107-1.66 0-2.246.967-2.246 2.363v5.84h-2.822z"/><path d="m108.795 0h292.579v122.435h-292.579z"/></g><path d="m198.3 108.643 37.238 30.096" fill="none" stroke="#9cd8b4" stroke-miterlimit="10" stroke-width="2"/><path d="m187.318 99.767 10.365 18.831 1.438-9.291 8.782-3.355z" fill="#9cd8b4"/><path d="m271.555 108.643-37.237 30.096" fill="none" stroke="#9cd8b4" stroke-miterlimit="10" stroke-width="2"/><path d="m282.538 99.767-20.587 6.184 8.783 3.356 1.438 9.29z" fill="#9cd8b4"/><path d="m235.084 90.86v47.879" fill="none" stroke="#9cd8b4" stroke-miterlimit="10" stroke-width="2"/><path d="m235.084 76.739-8.131 19.898 8.131-4.721 8.129 4.721z" fill="#9cd8b4"/><path d="m192.431 151.906h-1.543v-2.1h1.543v-1.035c0-2.109 1.104-2.939 3.564-2.939.645 0 .996.049 1.182.068v1.924c-.137-.02-.264-.029-.635-.029-.957 0-1.436.303-1.436 1.211v.801h1.982v2.1h-1.924v8.164h-2.734v-8.165z" fill="#7ec49a"/><path d="m199.101 146.036h2.754v14.033h-2.754z" fill="#7ec49a"/><path d="m203.925 155.294v-.811c0-3.145 1.865-4.99 4.668-4.99 2.939 0 4.639 1.973 4.639 4.98v.977h-6.611v.352c0 1.318.752 2.363 2.1 2.363 1.133 0 1.758-.586 1.855-1.289h2.568c-.127 1.445-1.318 3.379-4.414 3.379-3.008 0-4.805-1.816-4.805-4.961zm6.66-1.523v-.02c0-1.299-.742-2.227-1.973-2.227-1.221 0-1.992.938-1.992 2.227v.02z" fill="#7ec49a"/><path d="m219.091 156.632h-.107l-1.934 3.438h-2.91l3.193-5.166-3.311-5.225h3.174l1.885 3.418h.117l1.934-3.418h3.018l-3.379 5.137 3.311 5.254h-3.066z" fill="#7ec49a"/><path d="m231.142 145.714c.977 0 1.592.566 1.592 1.348 0 .791-.605 1.357-1.592 1.357-.957 0-1.572-.566-1.572-1.357-.001-.781.615-1.348 1.572-1.348zm-1.358 3.965h2.744v10.391h-2.744z" fill="#7ec49a"/><path d="m235.829 147.228h2.666v2.578h2.002v2.1h-2.002v4.814c0 .996.439 1.309 1.475 1.309.225 0 .449 0 .566-.02v2.021c-.215.039-.684.088-1.24.088-2.607 0-3.525-.859-3.525-2.998v-5.215h-1.484v-2.1h1.543v-2.577z" fill="#7ec49a"/><path d="m241.933 155.294v-.811c0-3.145 1.865-4.99 4.668-4.99 2.939 0 4.639 1.973 4.639 4.98v.977h-6.611v.352c0 1.318.752 2.363 2.1 2.363 1.133 0 1.758-.586 1.855-1.289h2.568c-.127 1.445-1.318 3.379-4.414 3.379-3.009 0-4.805-1.816-4.805-4.961zm6.66-1.523v-.02c0-1.299-.742-2.227-1.973-2.227-1.221 0-1.992.938-1.992 2.227v.02z" fill="#7ec49a"/><path d="m253.202 149.679h2.676v1.533h.137c.273-.762 1.152-1.689 2.744-1.689s2.549.732 2.891 1.807h.117c.322-.879 1.396-1.807 3.154-1.807 2.129 0 3.359 1.377 3.359 3.438v7.109h-2.744v-6.318c0-1.318-.703-1.953-1.719-1.953-1.084 0-1.758.732-1.758 2.041v6.23h-2.637v-6.23c0-1.475-.762-2.041-1.738-2.041-.947 0-1.738.615-1.738 2.021v6.25h-2.744z" fill="#7ec49a"/><path d="m274.55 149.493c2.461 0 4.023 1.211 4.023 3.184h-2.422c-.068-.625-.488-1.328-1.65-1.328-.977 0-1.572.469-1.572 1.191 0 1.045 1.592 1.172 2.705 1.367 1.914.322 3.262 1.055 3.262 2.939 0 2.119-1.67 3.408-4.512 3.408-2.705 0-4.277-1.279-4.277-3.125h2.666c.088.713.693 1.25 1.738 1.25 1.211 0 1.719-.537 1.719-1.221 0-.967-1.23-1.084-2.568-1.338-1.846-.371-3.35-1.035-3.35-3.057 0-2.332 1.992-3.27 4.238-3.27z" fill="#7ec49a"/><path d="m116.904 10.307h71.414v61.821h-71.414z" fill="#c3e2d2"/><path d="m152.313 25.586s-2.047-4.268 2.237-9.948" fill="none" stroke="#59351c" stroke-linecap="round" stroke-miterlimit="10" stroke-width="1.9078"/><path d="m138.031 49.471c-.158.489-.296.986-.409 1.492-1.838 8.239 2.072 15.09 12.004 15.744 15.82 1.041 21.555-7.12 16.783-18.667s-6.979-8.773-7.451-17.635c-.212-3.988-3.081-7.541-7.273-6.822-4.824.828-5.494 5.528-6.16 9.56-1.003 6.073-5.649 10.639-7.494 16.328z" fill="#bbc42a"/><path d="m151.708 24.2c.219-1.067.985-2.036 2.323-2.734 2.79-1.456 5.017-1.122 7.789.056.001 0 3.561 1.513 5.695-1.297-1.326 1.746-2.613 3.463-4.13 5.062-2.464 2.598-7.036 6.157-10.319 2.682-1.144-1.211-1.607-2.553-1.358-3.769z" style="fill:#7aa20d;stroke:#7aa20d;stroke-width:.696;stroke-linecap:round;stroke-linejoin:round;stroke-miterlimit:10"/><path d="m201.377 10.91h71.414v61.821h-71.414z" fill="#c3e2d2"/><circle cx="228.245" cy="32.806" fill="#765373" r="6.657"/><circle cx="239.511" cy="32.806" fill="#765373" r="6.657"/><circle cx="223.636" cy="43.46" fill="#765373" r="6.657"/><circle cx="234.39" cy="43.047" fill="#765373" r="6.657"/><circle cx="246.168" cy="42.279" fill="#765373" r="6.657"/><circle cx="240.535" cy="51.753" fill="#765373" r="6.657"/><circle cx="229.269" cy="53.495" fill="#765373" r="6.657"/><circle cx="235.926" cy="61.738" fill="#765373" r="6.657"/><path d="m233.007 28.011s-3.22-3.932-.192-10.945" fill="none" stroke="#59351c" stroke-linecap="round" stroke-miterlimit="10" stroke-width="2.0483"/><path d="m232.024 26.719c-.043-1.168.511-2.374 1.729-3.442 2.541-2.227 4.949-2.444 8.139-1.92.001 0 4.099.673 5.612-2.799-.94 2.158-1.847 4.277-3.022 6.329-1.911 3.336-5.776 8.21-10.084 5.418-1.501-.972-2.325-2.254-2.374-3.586z" style="fill:#7aa20d;stroke:#7aa20d;stroke-width:.7472;stroke-linecap:round;stroke-linejoin:round;stroke-miterlimit:10"/><path d="m284.646 10.307h71.414v61.821h-71.414z" fill="#c3e2d2"/><path d="m319.098 26.464c-.113-.875.219-1.821 1.061-2.708 1.756-1.851 3.552-2.182 5.987-2.009.001 0 3.129.222 4.025-2.495-.557 1.688-1.091 3.344-1.833 4.97-1.205 2.641-3.773 6.575-7.206 4.775-1.196-.627-1.905-1.534-2.034-2.533z" style="fill:#7aa20d;stroke:#7aa20d;stroke-width:.5643;stroke-linecap:round;stroke-linejoin:round;stroke-miterlimit:10"/><path d="m315.981 31.232s1.818.002 3.974-3.093" style="fill:none;stroke:#7aa20d;stroke-width:1.1601;stroke-linecap:round;stroke-linejoin:round;stroke-miterlimit:10"/><path d="m316.64 34.035s-2.848-3.479-.17-9.683" fill="none" stroke="#59351c" stroke-linecap="round" stroke-miterlimit="10" stroke-width="1.812"/><circle cx="318.518" cy="49.679" fill="#ef9235" r="17.161"/><circle cx="235.084" cy="137.151" fill="#9cd8b4" r="3.217" stroke="#9cd8b4" stroke-miterlimit="10" stroke-width="2"/><path d="m94.007 92.731h-47.879" fill="none" stroke="#ea8c8c" stroke-miterlimit="10" stroke-width="2"/><path d="m108.128 92.731-19.899-8.13 4.722 8.13-4.722 8.129z" fill="#ea8c8c"/><circle cx="46.128" cy="92.731" fill="#ea8c8c" r="3.217" stroke="#ea8c8c" stroke-miterlimit="10" stroke-width="2"/></svg>